<?xml version="1.0" standalone="no"?>
<!DOCTYPE svg PUBLIC "-//W3C//DTD SVG 20010904//EN"
 "http://www.w3.org/TR/2001/REC-SVG-20010904/DTD/svg10.dtd">
<svg version="1.0" xmlns="http://www.w3.org/2000/svg"
 width="275.000000pt" height="183.000000pt" viewBox="0 0 275.000000 183.000000"
 preserveAspectRatio="xMidYMid meet">
<metadata>
Created by potrace 1.16, written by Peter Selinger 2001-2019
</metadata>
<g transform="translate(0.000000,183.000000) scale(0.100000,-0.100000)"
fill="#000000" stroke="none">
<path d="M0 915 l0 -915 1375 0 1375 0 0 915 0 915 -1375 0 -1375 0 0 -915z
m1536 444 c93 -72 205 -158 249 -192 170 -129 385 -298 385 -302 0 -4 -69 34
-544 293 -142 78 -261 142 -264 142 -4 0 -127 -66 -274 -146 l-268 -146 0
-129 0 -129 393 -2 392 -3 -392 -2 -393 -3 0 -160 0 -160 393 -2 392 -3 -392
-2 -393 -3 -2 -38 -1 -37 -4 38 c-4 36 -5 37 -46 38 l-42 2 40 6 40 6 3 158 3
157 -43 1 -43 2 40 6 40 6 2 118 c1 77 -3 117 -9 117 -6 0 -41 -16 -77 -36
-36 -20 -91 -50 -121 -67 -72 -39 -50 -17 90 91 l115 88 2 114 c2 154 6 159
13 18 l5 -117 70 54 70 54 6 63 6 63 1 -52 c1 -29 5 -53 8 -53 6 0 105 74 269
202 55 43 102 78 106 78 3 0 82 -59 175 -131z"/>
</g>
</svg>
